# xmcd CD database file
#
# Track frame offsets:
#	187
#	12652
#	23272
#	42952
#	53940
#	66067
#	76305
#	93967
#	105972
#	118807
#	130165
#	140157
#	158755
#	175217
#	187272
#	202595
#	216355
#	227302
#	237507
#	250882
#
# Disc length: 3506 seconds
#
# Revision: 0
# Processed by: cddbd v1.5PL3 Copyright (c) Steve Scherf et al.
# Submitted via: CDex 1.51
#
DISCID=0b0db014
DTITLE=CONDORKANKI - CONDORKANKI BEST
DYEAR=2003
DGENRE=Folklore
TTITLE0=POCO A POCO
TTITLE1=BORRACHERA
TTITLE2=EL CONDOR PASA
TTITLE3=GUADALQUIVIR
TTITLE4=CONDORKANKI
TTITLE5=AMIGO
TTITLE6=ROMANCE DE VIENTO Y QUENA
TTITLE7=EL HUMAHUAQUINYO
TTITLE8=OJITOS DE LUZ
TTITLE9=CHACARERA DEL POBLE
TTITLE10=IREME PUES
TTITLE11=CANCION PARA UN ESPEJISMO
TTITLE12=SAMBA DE LOZANO
TTITLE13=SUMAJ PUNI
TTITLE14=ALFONSINA Y EL MAR
TTITLE15=LA IMILLA
TTITLE16=QUERO SER TU SOMBRA
TTITLE17=CARNAVALITO QUEBRADENYO
TTITLE18=TIAHUANACO
TTITLE19=CONDORKANKI(VOCAL)
EXTD=YEAR: 2003
EXTT0=
EXTT1=
EXTT2=
EXTT3=
EXTT4=
EXTT5=
EXTT6=
EXTT7=
EXTT8=
EXTT9=
EXTT10=
EXTT11=
EXTT12=
EXTT13=
EXTT14=
EXTT15=
EXTT16=
EXTT17=
EXTT18=
EXTT19=
PLAYORDER=
